<?xml version="1.0" encoding="utf-8"?>
<!-- Generator: Adobe Illustrator 24.0.1, SVG Export Plug-In . SVG Version: 6.00 Build 0)  -->
<svg version="1.1" id="图层_1" xmlns="http://www.w3.org/2000/svg" xmlns:xlink="http://www.w3.org/1999/xlink" x="0px" y="0px"
	 viewBox="0 0 200 200" style="enable-background:new 0 0 200 200;" xml:space="preserve">
<style type="text/css">
	.st0{fill:#848484;}
</style>
<path class="st0" d="M167.6,121.3c-2-1.7-3.8-3.3-4.8-5c-0.1-0.1-0.1-0.2-0.2-0.3l0-0.1c-3.4-5.4-4.7-18.5-5.5-26.3
	c-0.1-1.1-0.2-2.2-0.3-3.3c0-0.1,0-0.2,0-0.3c-1.7-11.5-5.8-28-16-41.6c-7.2-9.6-16.2-16-26.7-19c-0.6-7.2-6.8-12.9-14.3-12.9
	c-7.5,0-13.7,5.7-14.3,12.9c-10.5,3-19.5,9.4-26.7,19C48.5,58,44.4,74.5,42.7,86.1c0,0.1,0,0.2,0,0.3c-0.1,1.1-0.2,2.2-0.3,3.3
	c-0.8,7.8-2,20.9-5.5,26.4c-0.1,0.1-0.1,0.2-0.2,0.3c-1,1.8-2.9,3.4-4.8,5c-4.7,4.1-13.5,11.5-6,25.1c1.3,2.4,3.9,3.8,6.6,3.8h134.6
	c2.7,0,5.2-1.4,6.6-3.8C181.1,132.9,172.3,125.4,167.6,121.3L167.6,121.3z M116.8,162.3H83.4c-1.8,0-2.9,0.7-3.5,1.4
	c-0.9,1-1.2,2.2-1,3.7c1.3,10.3,10.3,18,20.9,18c10.7,0,19.7-7.9,20.9-18.3c0.1-0.7,0.1-2.4-1-3.7
	C118.9,162.7,117.8,162.2,116.8,162.3L116.8,162.3z"/>
</svg>
