<?xml version="1.0" encoding="utf-8"?>
<!-- Generator: Adobe Illustrator 24.0.1, SVG Export Plug-In . SVG Version: 6.00 Build 0)  -->
<svg version="1.1" id="图层_1" xmlns="http://www.w3.org/2000/svg" xmlns:xlink="http://www.w3.org/1999/xlink" x="0px" y="0px"
	 viewBox="0 0 200 200" style="enable-background:new 0 0 200 200;" xml:space="preserve">
<style type="text/css">
	.st0{clip-path:url(#SVGID_2_);}
</style>
<g>
	<g>
		<defs>
			<rect id="SVGID_1_" x="3" y="9.8" width="194" height="180.5"/>
		</defs>
		<clipPath id="SVGID_2_">
			<use xlink:href="#SVGID_1_"  style="overflow:visible;"/>
		</clipPath>
		<path class="st0" d="M195.2,169.5c2.4,4.2,2.3,9.4-0.2,13.7c-2.5,4.2-7,6.8-11.9,6.8H16.8c-4.9,0-9.4-2.6-11.9-6.8
			c-2.5-4.2-2.6-9.4-0.2-13.7L87.9,17.1c2.4-4.4,7-7.3,12.1-7.3c5.1,0,9.7,2.8,12.1,7.3L195.2,169.5z M115.6,68.5
			c0-0.6-0.3-1.5-1.1-2.1c-0.6-0.6-1.6-1.2-2.6-1.2H88.1c-1,0-1.9,0.6-2.6,1.2c-0.8,0.6-1.1,1.6-1.1,2.3l1.8,49.5
			c0,1.4,1.6,2.5,3.7,2.5h20c1.9,0,3.6-1.1,3.7-2.5L115.6,68.5z M113.8,138.1c0-1.9-1.5-3.6-3.5-3.6H89.6c-1.9,0-3.5,1.6-3.5,3.6
			v20.6c0,1.9,1.5,3.6,3.5,3.6h20.8c1.9,0,3.5-1.6,3.5-3.6V138.1z M113.8,138.1"/>
	</g>
</g>
</svg>
