<?xml version="1.0" encoding="utf-8"?>
<!-- Generator: Adobe Illustrator 24.0.1, SVG Export Plug-In . SVG Version: 6.00 Build 0)  -->
<svg version="1.1" id="图层_1" xmlns="http://www.w3.org/2000/svg" xmlns:xlink="http://www.w3.org/1999/xlink" x="0px" y="0px"
	 viewBox="0 0 200 200" style="enable-background:new 0 0 200 200;" xml:space="preserve">
<style type="text/css">
	.st0{fill:none;}
</style>
<rect x="57.4" y="1.5" width="42.5" height="10"/>
<path class="st0" d="M34.6,35.5v153h76.8c-2-1.5-3.8-3.2-5.5-5H39.6v-34H94c1.5-19,14.8-34.6,32.6-39.5V35.5H34.6z"/>
<path d="M34.6,183.6V40.4c0-2.7,2.2-4.9,4.9-4.9h82.1c2.7,0,4.9,2.2,4.9,4.9V104c0,3,2.6,5.3,5.6,4.9c0,0,0.1,0,0.1,0
	c2.5-0.3,4.3-2.4,4.3-4.9V22.4c0-2.7-2.2-4.9-4.9-4.9H29.6c-2.7,0-4.9,2.2-4.9,4.9v171.1c0,2.7,2.2,4.9,4.9,4.9h107.1v-1
	c-8.9-0.3-17.1-3.3-23.9-8.1c-0.9-0.6-1.9-1-2.9-1H39.6C36.8,188.5,34.6,186.3,34.6,183.6z"/>
<path d="M94,149.5H39.6v34h66.3c-7.5-8-12.1-18.7-12.1-30.5C93.8,151.8,93.9,150.7,94,149.5z"/>
<path d="M138.4,116c-20.4,0-37,16.6-37,37s16.6,37,37,37s37-16.6,37-37S158.8,116,138.4,116z M159.6,158h-42.5v-10h42.5V158z"/>
</svg>
