<?xml version="1.0" encoding="utf-8"?>
<!-- Generator: Adobe Illustrator 24.0.1, SVG Export Plug-In . SVG Version: 6.00 Build 0)  -->
<svg version="1.1" id="图层_1" xmlns="http://www.w3.org/2000/svg" xmlns:xlink="http://www.w3.org/1999/xlink" x="0px" y="0px"
	 viewBox="0 0 200 200" style="enable-background:new 0 0 200 200;" xml:space="preserve">
<style type="text/css">
	.st0{fill:#D7A54E;}
</style>
<path class="st0" d="M157.3,74c19.4-1.2,22.1-2.8,33.5,8.2c18.2-8.6,7.3-39.5-13.2-32.9c1-14.4-26.4-39.8-46.4-7.2
	C131.8,42.3,157,51,157.3,74"/>
<path class="st0" d="M131.1,42v0.1V42L131.1,42z"/>
<path class="st0" d="M114,110.3c-5,0-8.9,1.8-11.9,5.2c-2.9,3.4-4.4,8.1-4.4,14.1h0.1c0,5.8,1.4,10.3,4.4,13.7
	c3,3.3,6.8,5.1,11.8,5.1c5.1,0,9.1-1.6,11.7-4.8c2.7-3.3,4-8,4-14.1c0-6.2-1.3-10.8-4-14.1C123,112,119,110.3,114,110.3"/>
<path class="st0" d="M167.3,86.3l-21.9-0.8c-8-59.6-90.9-69.8-108.5,9.9l-8.6,0.5c-45.2,21.9-27.4,70.7-7,77.9v0.1h147.1
	C203.2,164.8,210.8,105,167.3,86.3 M74.7,114.2c-3.5-2.6-7.5-4-11.9-4c-5.1,0-9.3,1.8-12.5,5.3c-3.2,3.5-4.9,8.3-4.9,14.1
	c0,5.8,1.6,10.3,4.5,13.7c3.1,3.3,7.1,5,12.2,5c4.3,0,8.5-1.4,12.3-4.3v8.2v0.2c-3.9,2.3-8.5,3.4-14,3.4c-7.3,0-13.1-2.3-17.5-7.1
	c-4.4-4.6-6.6-10.7-6.6-18.2c0-8.3,2.4-14.9,7.2-20c4.7-5.1,11.2-7.6,19.2-7.6c4.6,0,8.6,0.8,11.9,2.4V114.2z M131.8,148.4
	c-4.6,4.8-10.7,7.4-18.4,7.4c-7.5,0-13.6-2.3-18.1-7.1c-4.5-4.7-6.7-11-6.7-18.7V130c0-8.4,2.3-14.9,6.9-19.7
	c4.6-4.9,10.9-7.2,19-7.2c7.6,0,13.4,2.3,17.7,7c4.3,4.6,6.5,11,6.5,19.2C138.8,137.1,136.4,143.6,131.8,148.4 M168.6,151.2v3.3
	h-17.8v-3.2l8.5-8.5c2.3-2.3,4-4.2,4.7-5.6c0.8-1.3,1.2-2.8,1.2-4.3c0-1.6-0.4-2.9-1.4-3.8c-0.9-0.9-2.3-1.3-4.1-1.3
	c-2.6,0-5.1,1.1-7.5,3.4v-3.8c2.3-1.8,5-2.7,8.1-2.7c2.7,0,4.8,0.7,6.3,2.1s2.3,3.3,2.3,5.7c0,1.9-0.4,3.6-1.4,5.4
	c-1,1.8-2.9,4-5.6,6.7l-6.7,6.5v0.1L168.6,151.2L168.6,151.2z"/>
</svg>
