<?xml version="1.0" encoding="utf-8"?>
<!-- Generator: Adobe Illustrator 24.0.1, SVG Export Plug-In . SVG Version: 6.00 Build 0)  -->
<svg version="1.1" id="图层_1" xmlns="http://www.w3.org/2000/svg" xmlns:xlink="http://www.w3.org/1999/xlink" x="0px" y="0px"
	 viewBox="0 0 200 200" style="enable-background:new 0 0 200 200;" xml:space="preserve">
<style type="text/css">
	.st0{clip-path:url(#SVGID_2_);}
</style>
<g>
	<g>
		<defs>
			<rect id="SVGID_1_" x="16.1" width="167.9" height="200"/>
		</defs>
		<clipPath id="SVGID_2_">
			<use xlink:href="#SVGID_1_"  style="overflow:visible;"/>
		</clipPath>
		<path class="st0" d="M16,130.3c57.2-27.2,112-11.6,167.9,6.9c-7.9,18.5-15.4,37.2-24.1,55.3c-1.7,3.6-8.3,6.7-12.7,6.8
			c-26.2,0.6-52.4,0.6-78.5,0.1c-4.2-0.1-10.2-2.2-12.3-5.4C42.2,172.6,28.9,150.8,16,130.3L16,130.3z M54.3,33.5
			c26.1-11.6,50.6-22.9,75.5-33.1c3-1.2,11.2,2.2,12.3,5.3c13.6,36,26.4,72.3,40.5,111.8c-30.3-7.6-57.7-14.4-85-21.6
			c-2.3-0.6-4.3-3.8-5.9-6.1C79.6,71.7,67.6,53.6,54.3,33.5L54.3,33.5z M16.1,109.7l27-61.1l32.7,48.9L16.1,109.7z M16.1,109.7"/>
	</g>
</g>
</svg>
