<?xml version="1.0" encoding="utf-8"?>
<!-- Generator: Adobe Illustrator 24.0.1, SVG Export Plug-In . SVG Version: 6.00 Build 0)  -->
<svg version="1.1" id="图层_1" xmlns="http://www.w3.org/2000/svg" xmlns:xlink="http://www.w3.org/1999/xlink" x="0px" y="0px"
	 viewBox="0 0 200 200" style="enable-background:new 0 0 200 200;" xml:space="preserve">
<path d="M133.3,74.2c-3.6-3.5-6.9-6.5-9.8-9.4l-7.6-7c-2-1.8-3.2-2.9-3.6-3.4c-3.7-3.5-7.7-8.5-12.3-8.2s-8.8,5.2-12.1,8.2
	c-0.6,0.6-1.8,1.8-3.8,3.7c-2.5,2.4-5.1,4.7-7.7,7.1c-3,2.8-6.4,5.9-10.2,9.3c-3.7,3.4-7.4,6.8-11.2,10.3
	c-8.1,7.4-16.9,16.3-26.7,25.4c-1.7,1.6-2.6,3.7-2.6,6.1v74.8c0,3.2,0.7,5.2,2.9,7c2.3,1.7,2.3,1.5,6.1,1.5l42.4-0.3v-43.1
	c0-9.5,3.8-11.6,11.5-11.6h23c7.4,0,11.5,2.3,11.5,11.6v43.1l40.9,0.3c3.7-0.1,6.8-1.7,8.9-4s3.3-4.9,3.3-7.8V117
	c0-2.4-1-4.5-2.7-6.1c-9.3-8.5-19.8-17.9-28.9-26.3C140.6,81.1,136.9,77.6,133.3,74.2z M199.8,93.3c-0.1-3.2-1.6-6.1-4.4-8.8l-5-5
	c-2.5-2.6-5.6-5.5-9.4-9c-3.7-3.5-7.8-7.4-12.2-11.9s-9-8.8-13.7-13.3c-4.6-4.4-9.3-8.9-13.7-13.2l-12.2-11.9
	c-3.6-3.5-6.8-6.5-9.3-9c-2.5-2.5-4.2-4.1-5-4.6c-4.1-4-9-7.1-14.9-7c-5.9,0-11.3,3.7-16.3,8.6c-0.7,0.7-3,2.9-7.1,6.7
	c-4.9,4.5-9.7,9-14.4,13.7c-5.6,5.3-11.7,11.1-18.3,17.2c-6.5,6.1-12.6,11.9-18.4,17.2c-5.6,5.3-10.6,9.9-14.7,13.8s-6.5,6.2-7.3,7
	c-2.1,2-3.3,4.6-3.4,8c-0.1,3.4,1.1,6.3,3.7,8.7c2.4,2.1,5.2,3.2,8.6,3c3.3-0.1,6-1,7.9-2.6c0.7-0.6,2.6-2.3,5.9-5.3
	c3.3-2.9,7.1-6.5,11.6-10.8c4.9-4.6,9.8-9.1,14.7-13.8c5.3-5,10.4-9.6,15.1-14.1s9-8.5,12.6-11.9s6.1-5.6,7.4-6.9
	c4-3.6,8-6.5,12.1-6.8c4.1-0.1,8.2,2.8,12.5,6.8c0.9,0.8,3.2,2.8,6.5,6.2c3.4,3.3,7.6,7.2,12.3,11.7c4.7,4.5,9.8,9.4,15.2,14.4
	c5.4,5.1,10.4,9.9,15.1,14.3c4.7,4.4,8.7,8.2,12.1,11.5c3.4,3.2,5.4,5.1,6.1,5.5c2,1.7,4.6,2.7,7.9,2.8c3.3,0.1,6.2-0.9,8.7-3.2
	c2.3-2.1,3.3-6,3.2-9.1v1H199.8z"/>
</svg>
