<?xml version="1.0" encoding="utf-8"?>
<!-- Generator: Adobe Illustrator 24.0.1, SVG Export Plug-In . SVG Version: 6.00 Build 0)  -->
<svg version="1.1" id="图层_1" xmlns="http://www.w3.org/2000/svg" xmlns:xlink="http://www.w3.org/1999/xlink" x="0px" y="0px"
	 viewBox="0 0 200 200" style="enable-background:new 0 0 200 200;" xml:space="preserve">
<style type="text/css">
	.st0{clip-path:url(#SVGID_2_);}
</style>
<g>
	<g>
		<defs>
			<rect id="SVGID_1_" x="13.5" width="173" height="200"/>
		</defs>
		<clipPath id="SVGID_2_">
			<use xlink:href="#SVGID_1_"  style="overflow:visible;"/>
		</clipPath>
		<path class="st0" d="M126.4,49c3.6,0.8,7.3-0.6,9.6-3.5c3.6-4.6,7-9.3,10.1-14.3c2.5-4.4,3.2-9.7,1.7-14.6
			c-1.5-4.9-4.9-9-9.5-11.2C131,1,122.4-0.8,114,0.5c-8.6,1.3-15.7,11.4-25.5,12.5S69.3,6.1,62.8,6.6c-10.3,0.7-15.3,14.1-9.6,24.6
			c3.1,5,6.6,9.7,10.3,14.3c2.3,2.9,6,4.2,9.6,3.5c17.5-3.8,35.5-3.8,53,0H126.4z M99.9,65.3c-56.8,0-86.4,39.8-86.4,78.9
			c0,23.8,8.9,55.5,86.4,55.5s86.4-31.7,86.4-55.5C186.3,105,156.7,65.3,99.9,65.3L99.9,65.3z M101.6,125.5
			c21.4,5.1,24.7,17.1,24.7,23.7c-0.4,10.9-8.5,19.9-19.2,21.4v2.6c0,4-3.2,7.2-7.2,7.2c-4,0-7.2-3.2-7.2-7.2v-2.3
			c-11.1-1.9-19.2-11.5-19.2-22.8h14.4c0,5.8,4.9,9.6,12.8,9.6c7.9,0,11.2-3.3,11.2-7.8c0-4.5-7.5-8.4-13.7-9.6
			c-21.4-5.1-24.7-17.1-24.7-23.7c0.4-10.9,8.5-19.9,19.2-21.4v-2.6c0-4,3.2-7.2,7.2-7.2c4,0,7.2,3.2,7.2,7.2v2.9
			c11.1,1.9,19.2,11.5,19.2,22.8h-14.4c0-5.8-4.9-9.6-12.8-9.6c-7.9,0-11.2,3.3-11.2,7.8C87.9,121,95.4,124,101.6,125.5L101.6,125.5
			z M101.6,125.5"/>
	</g>
</g>
</svg>
