<?xml version="1.0" standalone="no"?><!DOCTYPE svg PUBLIC "-//W3C//DTD SVG 1.1//EN" "http://www.w3.org/Graphics/SVG/1.1/DTD/svg11.dtd"><svg t="1594199778997" class="icon" viewBox="0 0 1024 1024" version="1.1" xmlns="http://www.w3.org/2000/svg" p-id="2778" xmlns:xlink="http://www.w3.org/1999/xlink" width="200" height="200"><defs><style type="text/css"></style></defs><path d="M632.243 121.744c0-65.494-53.073-118.589-118.589-118.589-65.494 0-118.566 53.096-118.566 118.589s53.073 118.589 118.566 118.589c65.516 0 118.59-53.096 118.589-118.589zM632.243 499.974c0-65.494-53.073-118.589-118.589-118.589-65.494 0-118.566 53.096-118.566 118.589s53.073 118.589 118.566 118.589c65.516 0 118.59-53.096 118.589-118.589zM632.244 901.845c0-65.494-53.073-118.591-118.59-118.591-65.494 0-118.566 53.097-118.566 118.591s53.073 118.589 118.566 118.589c65.516-0.001 118.59-53.096 118.589-118.589z" p-id="2779"></path></svg>