<?xml version="1.0" encoding="utf-8"?>
<!-- Generator: Adobe Illustrator 24.0.1, SVG Export Plug-In . SVG Version: 6.00 Build 0)  -->
<svg version="1.1" id="图层_1" xmlns="http://www.w3.org/2000/svg" xmlns:xlink="http://www.w3.org/1999/xlink" x="0px" y="0px"
	 viewBox="0 0 210.4 200" style="enable-background:new 0 0 210.4 200;" xml:space="preserve">
<path d="M185,166H25.5c-11.4,0-20.3-9-20.3-20.7V26.7C5.3,15,14.1,6,25.5,6H185c11.4,0,20.3,9,20.3,20.6v118.7
	C205.3,155.7,196.4,166,185,166z M151.5,76.5l-10-1.3c-1.2-2.5-1.2-5.1-2.5-7.6l6.3-7.6c1.3-1.3,1.3-5.1-1.3-6.3l-6.2-6.3
	c-1.3-1.3-5-2.5-6.3-1.3l-7.5,6.3l-7.5-3.8l-1.2-8.9c0-2.5-2.5-3.8-5-3.8h-8.8c-2.5,0-5,1.3-5,3.8l-1.2,8.9l-7.5,3.8l-7.5-6.3
	c-2.5-1.3-5-1.3-6.3,1.3l-6.3,6.3c-2.5,1.3-2.5,5.1-1.3,6.3l5,7.6c-1.3,2.5-1.3,5.1-2.5,7.6l-8.8,1.3c-2.5,0-5,2.5-5,5.1v8.9
	c0,2.5,1.3,5.1,3.8,5.1l8.7,1.3c2.5,2.5,3.8,5.1,5,7.6l-6.3,7.6c-1.3,1.3-1.3,5.1,1.3,6.3l6.3,6.3c1.3,2.5,3.8,2.5,6.3,1.3l7.5-6.3
	c2.5,1.3,5,2.5,7.5,2.5l1.3,10.1c0,2.5,2.5,3.8,5,3.8h8.8c2.5,0,5-1.3,5-3.8l1.2-10.1c2.5-1.3,5-1.3,7.5-2.5l7.5,6.3
	c1.3,1.3,5,1.3,6.3-1.3l6.3-6.3c1.3-1.3,2.5-5.1,1.3-6.3l-6.3-7.6c1.3-2.5,2.5-5.1,2.5-7.6l10-1.3c2.5,0,3.8-2.5,3.8-5.1v-8.9
	C155.3,79,154,76.5,151.5,76.5L151.5,76.5z M105.3,106c-11.3,0-20-8.5-20-19.4c0-10.9,8.8-20.6,20-20.6s20,8.5,20,19.4
	C125.3,96.3,116.5,106,105.3,106L105.3,106z M186.5,176H25.3c-5,0-10.1,5-10.1,10s3.8,10,10.1,10h159.9c5,0,10.1-5,10.1-10
	C195.3,181,191.5,176,186.5,176L186.5,176z"/>
</svg>
