<?xml version="1.0" encoding="utf-8"?>
<!-- Generator: Adobe Illustrator 24.0.1, SVG Export Plug-In . SVG Version: 6.00 Build 0)  -->
<svg version="1.1" id="图层_1" xmlns="http://www.w3.org/2000/svg" xmlns:xlink="http://www.w3.org/1999/xlink" x="0px" y="0px"
	 viewBox="0 0 200 200" style="enable-background:new 0 0 200 200;" xml:space="preserve">
<path d="M26.6,39l5.3-12.7c0,0,0.5-1.6,2.9-1.6c2.4-0.1,32.6,0,32.6,0s2.9-0.4,2.3,2.6c-0.5,2.9-1.9,11-1.9,11s-0.2,2.3-3,2.3
	c-2.9,0-35.5,0.2-35.5,0.2S25.7,41.1,26.6,39z M79.8,27.1c0,0,0.1-2.5,1.6-2.4c1.8,0,34.5,0,34.5,0s2.3-0.3,2.6,1.6
	c0.3,1.9,1.6,11.5,1.6,11.5s0.4,2.8-2.3,2.8H81.2c0,0-2.7,0.2-2.5-2.3C78.9,35.6,79.8,27.1,79.8,27.1z M172.9,39l-5.3-12.7
	c0,0-0.5-1.6-2.9-1.6s-32.6,0-32.6,0s-2.9-0.4-2.3,2.6c0.5,2.9,1.9,11,1.9,11s0.2,2.3,3,2.3s35.5,0.2,35.5,0.2S173.7,40.9,172.9,39
	L172.9,39z M16.7,65l6.1-16.3c0,0,0.6-2,3.4-2.1c2.8-0.1,37.5,0,37.5,0s3.3-0.5,2.7,3.3C65.8,53.7,64.3,64,64.3,64s-0.2,3-3.5,3
	c-3.3,0-40.8,0.5-40.8,0.5S15.7,67.6,16.7,65z M77.9,49.7c0,0,0.1-3.2,1.8-3.1c2.1,0,39.7,0,39.7,0s2.6-0.4,2.9,2.1
	c0.4,2.5,1.9,14.7,1.9,14.7s0.4,3.4-2.6,3.3c-2.9-0.1-42,0-42,0s-3.1,0.5-2.8-2.7C76.9,60.6,77.9,49.7,77.9,49.7z M184,65l-6.1-16.3
	c0,0-0.6-2-3.4-2.1c-2.8-0.1-37.5,0-37.5,0s-3.3-0.5-2.7,3.3c0.6,3.8,2.1,14.1,2.1,14.1s0.2,3,3.5,3c3.3,0,40.8,0.5,40.8,0.5
	S185,67.6,184,65z M1.9,98.7l8.9-20.9c0,0,0.7-2.8,3.9-2.9s43.2,0,43.2,0s3.8-0.7,3.1,4.6c-0.7,5.3-2.5,19.9-2.5,19.9
	s-0.2,4.2-4,4.2h-47C7.4,103.6-0.2,103.7,1.9,98.7z M198.7,98.7l-8.9-20.9c0,0-0.7-2.8-3.9-2.9s-43.2,0-43.2,0s-3.8-0.7-3.1,4.6
	c0.7,5.3,2.5,19.9,2.5,19.9s0.2,4.2,4,4.2h47C193.2,103.6,200.9,103.7,198.7,98.7z M75.1,79.5c0,0,0.1-4.5,2.1-4.5
	c2.4-0.1,45.7-0.1,45.7-0.1s3-0.6,3.4,3c0.4,3.5,2.2,21,2.2,21s0.4,4.8-3,4.7c-3.4-0.1-48.3,0-48.3,0s-3.6,0.7-3.3-3.8
	C74,95,75.1,79.5,75.1,79.5L75.1,79.5z M0,112.9v12.6h87.3v24.5L66.5,162v13.4h69.4v-13.3l-21.1-12v-24.9H200v-12.4H0z"/>
</svg>
