<?xml version="1.0" encoding="utf-8"?>
<!-- Generator: Adobe Illustrator 24.0.1, SVG Export Plug-In . SVG Version: 6.00 Build 0)  -->
<svg version="1.1" id="图层_1" xmlns="http://www.w3.org/2000/svg" xmlns:xlink="http://www.w3.org/1999/xlink" x="0px" y="0px"
	 viewBox="0 0 200 200" style="enable-background:new 0 0 200 200;" xml:space="preserve">
<path d="M182.4,100c0-11.7,7.3-21.6,17.6-25.6c-2.5-9.6-6.3-18.7-11.2-27.1c-10.1,4.5-22.3,2.7-30.5-5.6
	c-8.3-8.3-10.1-20.5-5.6-30.5c-8.4-5-17.5-8.8-27.1-11.2c-4,10.3-13.9,17.6-25.6,17.6c-11.7,0-21.6-7.3-25.6-17.6
	c-9.6,2.5-18.7,6.3-27.1,11.2c4.5,10.1,2.7,22.3-5.6,30.5s-20.5,10.1-30.5,5.6C6.3,55.7,2.5,64.8,0,74.4c10.3,4,17.6,13.9,17.6,25.6
	c0,11.7-7.3,21.6-17.6,25.6c2.5,9.6,6.3,18.7,11.2,27.1c10.1-4.5,22.3-2.7,30.5,5.6c8.3,8.3,10.1,20.5,5.6,30.5
	c8.4,5,17.5,8.8,27.1,11.2c4-10.3,13.9-17.6,25.6-17.6c11.7,0,21.6,7.3,25.6,17.6c9.6-2.5,18.7-6.3,27.1-11.2
	c-4.5-10.1-2.7-22.3,5.6-30.5s20.5-10.1,30.5-5.6c5-8.3,8.8-17.4,11.2-27.1C189.7,121.6,182.4,111.7,182.4,100z M100,127.5
	c-15.2,0-27.5-12.3-27.5-27.5S84.8,72.5,100,72.5s27.5,12.3,27.5,27.5S115.2,127.5,100,127.5z"/>
</svg>
