<?xml version="1.0" standalone="no"?><!DOCTYPE svg PUBLIC "-//W3C//DTD SVG 1.1//EN" "http://www.w3.org/Graphics/SVG/1.1/DTD/svg11.dtd"><svg t="1594459614065" class="icon" viewBox="0 0 1024 1024" version="1.1" xmlns="http://www.w3.org/2000/svg" p-id="2704" xmlns:xlink="http://www.w3.org/1999/xlink" width="200" height="200"><defs><style type="text/css"></style></defs><path d="M973.90592 925.184H59.41248V90.2144a19.456 19.456 0 0 0-38.93248 0v874.0864h953.58976a19.456 19.456 0 0 0 19.456-19.5584 19.61984 19.61984 0 0 0-19.61984-19.5584z" p-id="2705"></path><path d="M280.59648 809.92256V547.5328a20.48 20.48 0 0 0-20.48-20.48H163.34848a20.48 20.48 0 0 0-20.48 20.48v262.38976a20.48 20.48 0 0 0 20.48 20.48H260.096a20.48 20.48 0 0 0 20.48-20.48z m219.09504 0.02048V330.19904a20.48 20.48 0 0 0-20.48-20.48h-96.768a20.48 20.48 0 0 0-20.48 20.48v479.8464a20.48 20.48 0 0 0 20.48 20.48l96.78848-0.1024a20.48 20.48 0 0 0 20.48-20.48z m219.09504-0.02048V442.7776a20.48 20.48 0 0 0-20.48-20.48h-96.768a20.48 20.48 0 0 0-20.48 20.48v367.12448a20.48 20.48 0 0 0 20.48 20.48h96.768a20.48 20.48 0 0 0 20.48-20.48z m219.09504 0V204.8a20.48 20.48 0 0 0-20.48-20.48H820.6336a20.48 20.48 0 0 0-20.48 20.48v605.12256a20.48 20.48 0 0 0 20.48 20.48h96.768a20.48 20.48 0 0 0 20.48-20.48z" p-id="2706"></path></svg>