<?xml version="1.0" encoding="utf-8"?>
<!-- Generator: Adobe Illustrator 24.0.1, SVG Export Plug-In . SVG Version: 6.00 Build 0)  -->
<svg version="1.1" id="图层_1" xmlns="http://www.w3.org/2000/svg" xmlns:xlink="http://www.w3.org/1999/xlink" x="0px" y="0px"
	 viewBox="0 0 200 200" style="enable-background:new 0 0 200 200;" xml:space="preserve">
<style type="text/css">
	.st0{fill:#4C9D58;}
</style>
<path class="st0" d="M103.8,178.4c-22.4,0-44,7.8-60.6,21.6h121.2C147.9,186.2,126.2,178.4,103.8,178.4L103.8,178.4z M121.5,100.4
	c1.3,19,18,34,38.4,34c21.2,0,38.5-16.3,38.5-36.3c0-19.9-17.1-36.2-38.2-36.3C155.4,80.1,140.6,94.8,121.5,100.4z M130.4,130.8
	c-2.4-2-4.1-3.1-6-5.6l-9,6l-5-28c-2.4,0.3-5.5,0.5-8,0.5c-3.4,0-6.2-0.5-9.4-0.8l-5.9,33.5L76,128.9c-2.1,2.3-3.5,3.4-5.7,5.3
	l14.2,18.2l-3.6,20.7c7.2-1.8,14.9-2.4,22.6-2.4c7.1,0,12.7,0.3,18.9,1.5l-4.3-25.5L130.4,130.8z M40.3,64.8
	C19,64.8,1.7,80.9,1.7,100.7c0,19.8,17.3,35.9,38.6,35.9c21.3,0,38.7-16.1,38.7-35.9C79,80.9,61.6,64.8,40.3,64.8z M29.1,84.6
	c-7.1,4-11.3,10.9-11.3,18.6c0,1.5-1.3,2.8-3,2.8c-1.6,0-3-1.2-3-2.8c0-9.6,5.3-18.4,14.2-23.3c1.4-0.8,3.3-0.4,4.1,0.9
	C31,82.1,30.5,83.8,29.1,84.6z"/>
<path class="st0" d="M102.9,0C74.5,0,51.4,21.5,51.4,47.9c0,4,0.6,7.9,1.6,11.7c16.8,4.2,29.7,17.2,32.5,33.3
	c5.4,1.8,11.3,2.9,17.4,2.9c28.4,0,51.5-21.5,51.5-47.9C154.4,21.5,131.3,0,102.9,0z M84.7,21.7c-7.1,4-11.3,10.9-11.3,18.6
	c0,1.5-1.3,2.8-3,2.8c-1.6,0-3-1.2-3-2.8c0-9.5,5.5-18.5,14.2-23.4c1.4-0.8,3.3-0.4,4.1,1C86.6,19.2,86.1,20.9,84.7,21.7z"/>
</svg>
